HIERARCHY
ROOT Pelvis
{
	OFFSET 0.000000 0.941512 0.000000
	CHANNELS 6 Xposition Yposition Zposition Zrotation Yrotation Xrotation 
	JOINT Pelvis_L_Hip
	{
		OFFSET 0.000000 0.000000 0.000000
		CHANNELS 3 Zrotation Yrotation Xrotation
		JOINT L_Hip
		{
			OFFSET 0.062321 -0.080322 -0.016990
			CHANNELS 3 Zrotation Yrotation Xrotation
			JOINT L_Knee
			{
				OFFSET 0.093051 -0.381305 -0.029784
				CHANNELS 3 Zrotation Yrotation Xrotation
				JOINT L_Ankle
				{
					OFFSET -0.010371 -0.431000 -0.033614
					CHANNELS 3 Zrotation Yrotation Xrotation
					End Site #name: L_Foot
					{
						OFFSET 0.069299 -0.038670 0.119418
					}
				}
			}
		}
	}
	JOINT Pelvis_R_Hip
	{
		OFFSET 0.000000 0.000000 0.000000
		CHANNELS 3 Zrotation Yrotation Xrotation
		JOINT R_Hip
		{
			OFFSET -0.055334 -0.094904 -0.002373
			CHANNELS 3 Zrotation Yrotation Xrotation
			JOINT R_Knee
			{
				OFFSET -0.064207 -0.384370 -0.019592
				CHANNELS 3 Zrotation Yrotation Xrotation
				JOINT R_Ankle
				{
					OFFSET 0.025418 -0.419734 -0.065953
					CHANNELS 3 Zrotation Yrotation Xrotation
					End Site #name: R_Foot
					{
						OFFSET -0.057233 -0.039888 0.132134
					}
				}
			}
		}
	}
	JOINT Pelvis_Spine1
	{
		OFFSET 0.000000 0.000000 0.000000
		CHANNELS 3 Zrotation Yrotation Xrotation
		JOINT Spine1
		{
			OFFSET -0.005562 0.124093 -0.043360
			CHANNELS 3 Zrotation Yrotation Xrotation
			JOINT Spine2
			{
				OFFSET 0.012244 0.139499 0.029894
				CHANNELS 3 Zrotation Yrotation Xrotation
				JOINT Spine3
				{
					OFFSET -0.002556 0.056561 0.009225
					CHANNELS 3 Zrotation Yrotation Xrotation
					JOINT Spine3_Neck
					{
						OFFSET 0.000000 0.000000 0.000000
						CHANNELS 3 Zrotation Yrotation Xrotation
						JOINT Neck
						{
							OFFSET -0.005205 0.217920 -0.024551
							CHANNELS 3 Zrotation Yrotation Xrotation
							End Site #name: Head
							{
								OFFSET 0.002365 0.091850 0.046637
							}
						}
					}
					JOINT Spine3_L_Collar
					{
						OFFSET 0.000000 0.000000 0.000000
						CHANNELS 3 Zrotation Yrotation Xrotation
						JOINT L_Collar
						{
							OFFSET 0.072225 0.116603 -0.009480
							CHANNELS 3 Zrotation Yrotation Xrotation
							JOINT L_Shoulder
							{
								OFFSET 0.115937 -0.058643 -0.021018
								CHANNELS 3 Zrotation Yrotation Xrotation
								JOINT L_Elbow
								{
									OFFSET 0.021994 -0.254722 -0.024492
									CHANNELS 3 Zrotation Yrotation Xrotation
									End Site #name: L_Wrist
									{
										OFFSET 0.048810 -0.240214 0.103329
									}
								}
							}
						}
					}
					JOINT Spine3_R_Collar
					{
						OFFSET 0.000000 0.000000 0.000000
						CHANNELS 3 Zrotation Yrotation Xrotation
						JOINT R_Collar
						{
							OFFSET -0.073372 0.120704 -0.024611
							CHANNELS 3 Zrotation Yrotation Xrotation
							JOINT R_Shoulder
							{
								OFFSET -0.108089 -0.054969 -0.020504
								CHANNELS 3 Zrotation Yrotation Xrotation
								JOINT R_Elbow
								{
									OFFSET -0.033684 -0.260739 0.009889
									CHANNELS 3 Zrotation Yrotation Xrotation
									End Site #name: R_Wrist
									{
										OFFSET -0.067980 -0.232763 0.118463
									}
								}
							}
						}
					}
				}
			}
		}
	}
}
MOTION
Frames: 8
Frame Time: 0.041667
0.000000 0.910891 0.000000 -1.723836 5.795501 -7.041260 0.000000 0.000000 0.000000 -14.692198 5.137696 11.066727 10.778205 -2.527356 13.370944 8.198834 -12.911199 -18.246167 0.000000 0.000000 0.000000 4.734073 5.383135 -27.859548 -3.545553 2.295200 20.680285 -0.117281 -7.789289 6.582979 0.000000 0.000000 0.000000 1.406568 -0.710844 3.884702 -3.741495 2.693364 29.554720 2.934625 -1.246327 -25.889649 0.000000 0.000000 0.000000 1.094669 -1.403242 17.632541 0.000000 0.000000 0.000000 33.264396 -18.812344 -10.479813 -13.679205 -2.150519 -13.606135 -8.058844 -6.359631 -9.124722 0.000000 0.000000 0.000000 -27.603526 0.964551 5.039549 21.796119 -5.165033 20.849254 7.789751 5.859608 -4.515704 
-0.002651 0.900167 -0.000210 -1.581066 6.101891 -6.515269 0.000000 0.000000 0.000000 -13.506094 5.878121 13.660217 10.187847 -2.659322 15.252556 8.509280 -13.205265 -18.795517 0.000000 0.000000 0.000000 5.650698 5.633817 -28.230850 -4.283125 2.024136 14.619721 -1.459847 -10.991167 6.232698 0.000000 0.000000 0.000000 1.540545 -0.719382 3.654425 -4.113306 2.860158 29.862573 3.001252 -1.498927 -26.519641 0.000000 0.000000 0.000000 0.912299 -1.275421 17.700267 0.000000 0.000000 0.000000 34.528064 -19.063357 -10.752235 -13.512687 -2.780425 -16.435205 -7.178546 -6.642118 -11.550025 0.000000 0.000000 0.000000 -27.972287 0.646102 5.439204 22.988496 -5.510009 21.522063 7.168881 5.496201 -4.527380 
-0.005916 0.893586 0.004653 -2.576661 6.445170 -5.867439 0.000000 0.000000 0.000000 -11.356536 6.116897 15.619551 9.755188 -3.013201 18.570702 8.520967 -13.679373 -18.912945 0.000000 0.000000 0.000000 8.063866 6.028683 -27.792798 -4.126682 2.216819 17.675569 -1.115341 -9.186483 5.258758 0.000000 0.000000 0.000000 3.042168 -0.816224 1.588396 -4.020024 2.878273 31.512637 2.740342 -1.247386 -27.448503 0.000000 0.000000 0.000000 0.436382 -1.005176 17.619239 0.000000 0.000000 0.000000 33.657990 -19.186198 -10.745287 -14.016293 -2.919167 -16.708421 -6.195450 -6.802197 -13.874252 0.000000 0.000000 0.000000 -27.768917 1.330586 4.688380 23.077167 -5.599405 21.874434 7.073704 4.774307 -2.845207 
-0.009039 0.891072 0.010719 -3.757024 6.605583 -4.492365 0.000000 0.000000 0.000000 -9.099544 5.270615 14.444046 8.280108 -3.620345 26.076300 7.010080 -13.118208 -16.426612 0.000000 0.000000 0.000000 10.200788 6.676003 -28.772146 -4.427701 2.760970 23.214224 -1.121103 -10.949015 7.274304 0.000000 0.000000 0.000000 4.252052 -0.793655 -0.615765 -3.766972 2.689036 30.699101 2.955804 -0.541165 -26.610900 0.000000 0.000000 0.000000 0.344957 -0.951388 16.427254 0.000000 0.000000 0.000000 32.084062 -17.741741 -9.173777 -16.490255 -2.882063 -15.705048 -6.370320 -7.511541 -15.825135 0.000000 0.000000 0.000000 -27.003324 1.671201 4.042786 21.823505 -5.246657 21.180739 7.253790 4.415578 -1.669721 
-0.011776 0.897898 0.016849 -4.641481 6.070125 -4.335371 0.000000 0.000000 0.000000 -7.306614 3.654314 10.248041 4.561958 -3.875081 39.495314 1.995300 -10.384739 -7.871787 0.000000 0.000000 0.000000 12.813062 6.739269 -26.793886 -5.135292 3.495088 28.307894 -2.079640 -10.328983 3.535504 0.000000 0.000000 0.000000 4.614659 -0.638098 -2.309861 -2.743294 2.318375 32.168383 3.128258 0.271252 -26.865927 0.000000 0.000000 0.000000 0.135036 -0.765689 14.931413 0.000000 0.000000 0.000000 31.059894 -16.189524 -7.635364 -20.492389 -2.401183 -12.724787 -6.311445 -7.499458 -15.995584 0.000000 0.000000 0.000000 -27.169143 2.598820 3.221168 21.842491 -4.358493 18.500732 6.790813 4.267735 -1.948469 
-0.017917 0.904000 0.017961 -5.873090 5.440537 -4.142940 0.000000 0.000000 0.000000 -4.051131 1.067078 2.746343 -0.750186 -2.528552 55.050612 -2.198893 -6.696542 0.133846 0.000000 0.000000 0.000000 14.308669 5.601117 -21.609596 -3.509002 2.665390 26.195003 -3.253295 -9.972304 -0.514968 0.000000 0.000000 0.000000 5.818591 -0.813539 -2.709325 -3.612241 2.725949 31.423120 3.767391 1.648004 -26.166665 0.000000 0.000000 0.000000 -0.684258 -0.285375 14.461373 0.000000 0.000000 0.000000 31.326736 -14.842002 -6.147227 -23.403754 -1.804022 -10.344363 -8.258708 -7.734200 -13.132849 0.000000 0.000000 0.000000 -27.730782 4.468978 1.578537 23.215616 -3.751930 16.301743 6.007211 4.715158 -4.268765 
-0.021826 0.909476 0.012714 -4.831143 5.437110 -3.179536 0.000000 0.000000 0.000000 -3.419421 -1.679385 -7.116445 -5.887930 0.507860 66.483438 1.815297 1.798184 -2.109083 0.000000 0.000000 0.000000 14.014922 4.651436 -18.429023 -3.905350 2.773818 25.385771 -3.763254 -8.871667 -3.151704 0.000000 0.000000 0.000000 4.556976 -0.628316 -2.383742 -4.296370 2.951504 29.787798 4.162228 2.882128 -24.866343 0.000000 0.000000 0.000000 -0.919859 -0.146478 13.323550 0.000000 0.000000 0.000000 30.595924 -14.169348 -5.370191 -23.948809 -1.153732 -8.378730 -10.182696 -6.794965 -7.093525 0.000000 0.000000 0.000000 -27.585681 6.343533 -0.252518 23.072899 -2.688708 13.076751 5.540265 5.168500 -6.165263 
-0.025102 0.918578 0.007232 -3.154352 4.445188 -3.086139 0.000000 0.000000 0.000000 -3.635758 -3.978879 -15.211613 -8.619424 3.084905 68.863674 4.478538 8.967939 -2.700474 0.000000 0.000000 0.000000 13.791363 3.197532 -13.294484 -5.863824 3.347952 22.666401 -4.124739 -7.193051 -5.589646 0.000000 0.000000 0.000000 3.367854 -0.717903 0.122985 -6.809973 4.077484 28.921375 5.060158 4.236032 -25.702488 0.000000 0.000000 0.000000 -1.043612 -0.050897 12.676377 0.000000 0.000000 0.000000 29.306575 -12.956283 -4.342824 -23.532695 0.078306 -4.242705 -10.267016 -5.724042 -3.729818 0.000000 0.000000 0.000000 -28.197091 8.428801 -2.005889 23.360585 -1.364740 9.312992 5.115672 6.067589 -9.148077 
